<?xml version="1.0" encoding="UTF-8" standalone="no"?>
<!DOCTYPE svg PUBLIC "-//W3C//DTD SVG 1.1//EN" "http://www.w3.org/Graphics/SVG/1.1/DTD/svg11.dtd">
<svg xmlns="http://www.w3.org/2000/svg" version="1.1" viewBox="0.00 0.00 1217.00 1721.00">
<g stroke-width="2.00" fill="none" stroke-linecap="butt">
<path stroke="#4c2601" vector-effect="non-scaling-stroke" d="
  M 1114.77 118.14
  Q 1094.68 135.53 1073.75 152.36
  A 1.11 1.10 -44.7 0 0 1073.74 154.07
  Q 1090.32 167.68 1109.50 177.28
  Q 1110.01 177.53 1110.25 177.02
  Q 1121.34 153.56 1132.31 130.06
  Q 1136.42 121.24 1138.59 117.58
  Q 1160.23 81.09 1181.76 44.52
  Q 1182.52 43.22 1181.57 44.40
  C 1161.01 69.95 1139.63 96.62 1114.77 118.14"
/>
<path stroke="#666666" vector-effect="non-scaling-stroke" d="
  M 828.10 294.98
  Q 825.88 299.13 826.50 302.97
  C 829.84 323.56 843.30 342.50 858.16 356.09
  Q 876.74 373.08 889.00 385.96"
/>
<path stroke="#666666" vector-effect="non-scaling-stroke" d="
  M 889.79 386.50
  Q 913.15 407.48 938.52 425.97
  C 940.50 427.42 943.43 428.69 945.63 430.26
  Q 957.04 438.42 968.32 446.75
  C 981.54 456.52 993.55 458.47 1009.56 454.58
  C 1016.81 452.82 1024.63 448.30 1030.22 443.72
  Q 1047.78 429.31 1065.43 414.59"
/>
<path stroke="#808080" vector-effect="non-scaling-stroke" d="
  M 1065.43 414.59
  Q 1076.41 401.08 1087.17 387.22
  Q 1091.19 382.04 1094.43 376.14
  Q 1107.72 352.02 1120.97 327.87
  Q 1125.31 319.95 1130.42 312.73
  Q 1155.55 277.20 1181.36 242.16
  C 1184.63 237.72 1184.73 234.66 1185.74 227.99
  C 1186.94 220.08 1180.57 202.01 1173.39 196.98
  Q 1162.15 189.12 1150.71 181.57
  C 1144.48 177.46 1137.96 174.18 1130.87 174.53
  Q 1130.33 174.56 1129.89 174.87
  L 1119.17 182.52
  Q 1118.72 182.84 1119.20 183.09
  L 1129.08 188.31
  Q 1129.61 188.59 1129.74 189.18
  L 1130.04 190.63
  Q 1130.15 191.14 1129.64 191.27
  C 1098.32 198.97 1072.30 175.45 1055.68 152.10
  C 1051.86 146.74 1053.56 133.54 1054.65 126.73
  A 1.06 1.05 -1.6 0 1 1055.48 125.86
  L 1058.34 125.24
  Q 1058.82 125.14 1058.95 125.61
  L 1063.67 142.29
  Q 1063.86 142.94 1064.28 142.41
  L 1076.41 127.20
  Q 1076.79 126.73 1076.34 126.33
  C 1061.74 113.57 1047.66 99.69 1030.51 90.39
  Q 1028.18 89.13 1025.70 89.03
  C 992.90 87.74 964.98 113.70 946.30 137.31
  Q 920.58 169.83 897.07 203.98
  Q 891.74 211.72 886.08 218.34
  Q 864.39 243.71 842.57 268.99
  C 836.34 276.21 832.04 286.45 828.10 294.98"
/>
<path stroke="#e6e6e6" vector-effect="non-scaling-stroke" d="
  M 1065.43 414.59
  Q 1058.51 413.12 1051.51 412.23
  C 1026.32 409.00 1001.12 403.87 975.93 399.36
  Q 974.77 399.15 975.81 398.60
  Q 986.08 393.25 996.86 387.41
  Q 1001.49 384.89 1005.12 380.91
  Q 1006.76 379.09 1004.34 378.74
  C 990.37 376.69 979.73 372.39 964.13 366.14
  C 932.57 353.51 898.94 337.67 869.87 323.67
  Q 864.87 321.27 860.23 317.89
  Q 844.30 306.31 828.10 294.98"
/>
<path stroke="#4c2601" vector-effect="non-scaling-stroke" d="
  M 848.04 481.50
  C 837.83 493.98 827.13 506.27 817.52 519.03
  C 791.87 553.08 770.31 582.44 752.60 611.83
  Q 736.53 638.50 692.08 715.00
  Q 687.43 723.01 683.76 731.34
  C 671.86 758.35 665.04 773.74 660.29 799.75"
/>
<path stroke="#402000" vector-effect="non-scaling-stroke" d="
  M 660.29 799.75
  C 653.78 832.16 650.09 860.20 645.75 898.96
  C 634.87 996.07 591.93 1084.96 527.35 1157.89
  C 479.92 1211.46 431.59 1264.03 379.96 1313.60
  Q 266.48 1422.55 152.87 1531.37
  Q 138.63 1545.01 124.19 1558.44
  Q 80.17 1599.40 41.94 1645.82
  Q 41.63 1646.19 42.00 1646.51
  L 78.87 1678.36
  A 0.67 0.67 0.0 0 0 79.76 1678.35
  Q 127.22 1635.34 174.36 1592.00
  C 205.92 1563.00 232.21 1528.17 257.56 1493.80
  C 270.04 1476.89 284.82 1460.34 298.46 1445.71
  C 314.60 1428.39 342.55 1397.64 371.70 1368.70
  Q 458.71 1282.33 545.60 1195.85
  C 576.95 1164.66 609.66 1135.06 642.23 1105.15
  Q 647.03 1100.74 652.43 1097.15
  Q 672.83 1083.57 693.35 1070.17
  C 716.69 1054.93 740.71 1044.69 765.73 1034.08
  C 784.52 1026.13 802.78 1016.46 821.00 1007.29"
/>
<path stroke="#4c2601" vector-effect="non-scaling-stroke" d="
  M 821.00 1007.29
  C 823.74 1005.87 826.54 1005.90 829.03 1004.33
  Q 880.01 972.39 931.57 941.22
  A 0.34 0.34 0.0 0 0 931.34 940.59
  C 912.19 943.57 892.89 946.75 873.56 948.81
  Q 830.03 953.45 786.48 957.80
  C 781.06 958.34 774.46 956.11 769.02 954.97
  Q 768.53 954.86 768.22 954.47
  C 730.51 907.21 712.72 851.81 720.13 791.37
  C 726.21 741.84 744.47 695.10 770.06 652.25
  Q 776.82 640.94 780.05 634.94
  Q 801.50 595.09 822.52 555.01
  Q 839.04 523.49 866.25 491.29"
/>
<path stroke="#402000" vector-effect="non-scaling-stroke" d="
  M 866.25 491.29
  Q 887.21 462.77 906.75 433.23
  Q 907.08 432.74 906.61 432.38
  L 888.43 418.84
  A 0.61 0.60 34.5 0 0 887.55 419.00
  L 848.04 481.50"
/>
<path stroke="#8c4601" vector-effect="non-scaling-stroke" d="
  M 866.25 491.29
  Q 856.89 486.86 848.04 481.50"
/>
<path stroke="#8c4601" vector-effect="non-scaling-stroke" d="
  M 821.00 1007.29
  C 820.03 1006.56 819.21 1005.92 817.88 1006.01
  C 794.84 1007.52 743.16 1009.10 729.28 985.26
  Q 718.92 967.47 708.76 949.73
  A 0.35 0.35 0.0 0 0 708.12 949.81
  L 697.96 986.32
  Q 697.79 986.92 697.18 987.04
  L 689.53 988.51
  A 0.54 0.54 0.0 0 1 688.89 988.07
  Q 674.39 898.86 659.80 809.74
  C 659.56 808.30 661.65 801.24 660.29 799.75"
/>
</g>
<path fill="#000000" d="
  M 925.19 452.33
  Q 924.38 452.25 923.96 452.95
  C 915.93 466.45 907.93 479.73 899.45 492.67
  Q 890.81 505.84 886.74 521.12
  Q 885.83 524.55 884.22 527.27
  Q 863.81 561.73 843.45 596.19
  Q 835.24 610.08 804.00 657.12
  Q 800.22 662.80 797.35 668.93
  Q 782.19 701.24 767.21 733.64
  C 763.28 742.13 757.87 751.99 754.54 759.55
  C 744.76 781.74 744.33 806.75 746.31 830.98
  C 749.39 868.67 762.82 903.89 787.30 933.20
  Q 789.00 935.23 790.26 936.38
  Q 790.65 936.73 791.17 936.66
  C 810.06 934.07 829.43 932.15 847.96 927.59
  Q 876.58 920.54 905.27 913.80
  Q 915.22 911.47 924.57 908.62
  Q 969.60 894.90 1014.50 880.73
  Q 1015.54 880.40 1016.56 881.21
  Q 1016.96 881.53 1017.46 881.45
  L 1032.56 879.23
  A 1.34 1.31 -18.4 0 1 1033.91 879.89
  L 1038.51 888.03
  Q 1038.75 888.45 1038.62 888.90
  Q 1030.37 918.14 1008.42 937.43
  Q 962.78 977.52 905.24 1003.50
  Q 887.91 1011.32 828.06 1039.25
  Q 819.03 1043.46 810.04 1047.93
  Q 756.23 1074.66 702.43 1101.42
  Q 668.39 1118.36 639.06 1147.06
  Q 517.79 1265.71 396.75 1384.61
  C 370.82 1410.09 347.60 1438.74 327.04 1468.68
  C 304.38 1501.69 290.13 1522.13 267.56 1548.55
  Q 236.40 1585.01 205.01 1621.28
  Q 202.64 1624.02 199.90 1626.39
  Q 145.40 1673.52 90.99 1720.30
  A 1.36 1.35 35.5 0 1 89.58 1720.53
  Q 78.03 1715.83 66.71 1710.76
  C 35.90 1696.98 10.53 1673.46 0.22 1640.67
  A 0.71 0.70 -33.0 0 1 0.37 1639.99
  Q 57.01 1577.51 113.67 1514.92
  Q 117.08 1511.16 124.19 1504.19
  Q 165.44 1463.76 206.88 1423.54
  C 238.35 1393.00 272.00 1364.61 303.84 1334.44
  Q 348.66 1291.97 393.27 1249.27
  Q 398.06 1244.68 402.56 1239.81
  Q 429.90 1210.21 457.25 1180.62
  Q 464.05 1173.27 470.28 1165.47
  Q 507.28 1119.18 544.19 1072.80
  Q 548.23 1067.73 551.44 1062.07
  Q 563.34 1041.15 575.24 1020.25
  Q 576.24 1018.49 576.83 1016.57
  C 582.89 996.98 589.46 977.26 593.98 957.25
  C 597.98 939.57 601.87 921.96 606.54 904.33
  C 616.60 866.38 626.09 828.30 636.13 790.36
  Q 638.73 780.49 642.12 771.29
  C 650.18 749.46 658.22 727.37 667.99 706.23
  C 688.02 662.89 707.20 618.97 728.93 576.45
  Q 731.29 571.84 734.54 567.71
  C 777.89 512.65 821.66 457.88 865.62 403.50
  Q 866.32 402.63 865.44 401.95
  C 858.25 396.36 849.60 390.82 843.84 383.88
  Q 830.11 367.29 816.44 350.65
  Q 807.83 340.15 804.62 334.56
  C 788.33 306.20 794.43 277.87 815.75 254.53
  Q 838.23 229.93 860.71 205.33
  C 875.29 189.36 888.53 171.86 902.10 155.02
  Q 906.18 149.95 910.06 143.85
  C 922.39 124.44 935.27 107.48 953.75 93.47
  C 971.61 79.92 1004.56 56.04 1029.17 62.62
  Q 1032.96 63.63 1038.12 67.12
  Q 1066.12 86.03 1093.96 104.58
  A 0.93 0.92 39.7 0 0 1095.11 104.48
  Q 1117.00 83.13 1138.73 61.73
  Q 1142.77 57.76 1146.42 53.42
  Q 1165.28 31.03 1183.19 7.87
  Q 1183.27 7.77 1185.08 4.98
  C 1188.51 -0.32 1196.58 -1.14 1201.68 2.20
  Q 1212.22 9.10 1209.25 23.50
  Q 1205.85 39.99 1203.09 48.08
  C 1198.95 60.23 1193.33 73.58 1189.52 84.10
  Q 1184.24 98.67 1178.88 113.20
  C 1178.09 115.34 1176.70 116.43 1175.57 118.28
  Q 1166.90 132.55 1158.17 146.78
  Q 1157.90 147.21 1158.22 147.61
  C 1160.96 151.02 1164.10 154.84 1168.45 156.04
  Q 1174.37 157.67 1178.51 161.24
  Q 1185.24 167.02 1204.21 184.18
  C 1228.08 205.76 1212.41 241.08 1197.64 262.20
  Q 1174.29 295.57 1150.83 328.89
  Q 1147.81 333.18 1145.50 338.15
  C 1124.71 382.93 1098.82 432.95 1057.01 460.70
  C 1043.07 469.96 1029.33 477.48 1013.51 482.29
  C 981.29 492.08 948.85 476.50 926.73 453.28
  Q 925.90 452.41 925.19 452.33
  Z
  M 1114.77 118.14
  Q 1094.68 135.53 1073.75 152.36
  A 1.11 1.10 -44.7 0 0 1073.74 154.07
  Q 1090.32 167.68 1109.50 177.28
  Q 1110.01 177.53 1110.25 177.02
  Q 1121.34 153.56 1132.31 130.06
  Q 1136.42 121.24 1138.59 117.58
  Q 1160.23 81.09 1181.76 44.52
  Q 1182.52 43.22 1181.57 44.40
  C 1161.01 69.95 1139.63 96.62 1114.77 118.14
  Z
  M 828.10 294.98
  Q 825.88 299.13 826.50 302.97
  C 829.84 323.56 843.30 342.50 858.16 356.09
  Q 876.74 373.08 889.00 385.96
  C 888.15 385.88 887.72 386.58 888.04 387.25
  Q 888.24 387.68 888.70 387.55
  Q 889.51 387.32 889.79 386.50
  Q 913.15 407.48 938.52 425.97
  C 940.50 427.42 943.43 428.69 945.63 430.26
  Q 957.04 438.42 968.32 446.75
  C 981.54 456.52 993.55 458.47 1009.56 454.58
  C 1016.81 452.82 1024.63 448.30 1030.22 443.72
  Q 1047.78 429.31 1065.43 414.59
  Q 1076.41 401.08 1087.17 387.22
  Q 1091.19 382.04 1094.43 376.14
  Q 1107.72 352.02 1120.97 327.87
  Q 1125.31 319.95 1130.42 312.73
  Q 1155.55 277.20 1181.36 242.16
  C 1184.63 237.72 1184.73 234.66 1185.74 227.99
  C 1186.94 220.08 1180.57 202.01 1173.39 196.98
  Q 1162.15 189.12 1150.71 181.57
  C 1144.48 177.46 1137.96 174.18 1130.87 174.53
  Q 1130.33 174.56 1129.89 174.87
  L 1119.17 182.52
  Q 1118.72 182.84 1119.20 183.09
  L 1129.08 188.31
  Q 1129.61 188.59 1129.74 189.18
  L 1130.04 190.63
  Q 1130.15 191.14 1129.64 191.27
  C 1098.32 198.97 1072.30 175.45 1055.68 152.10
  C 1051.86 146.74 1053.56 133.54 1054.65 126.73
  A 1.06 1.05 -1.6 0 1 1055.48 125.86
  L 1058.34 125.24
  Q 1058.82 125.14 1058.95 125.61
  L 1063.67 142.29
  Q 1063.86 142.94 1064.28 142.41
  L 1076.41 127.20
  Q 1076.79 126.73 1076.34 126.33
  C 1061.74 113.57 1047.66 99.69 1030.51 90.39
  Q 1028.18 89.13 1025.70 89.03
  C 992.90 87.74 964.98 113.70 946.30 137.31
  Q 920.58 169.83 897.07 203.98
  Q 891.74 211.72 886.08 218.34
  Q 864.39 243.71 842.57 268.99
  C 836.34 276.21 832.04 286.45 828.10 294.98
  Z
  M 848.04 481.50
  C 837.83 493.98 827.13 506.27 817.52 519.03
  C 791.87 553.08 770.31 582.44 752.60 611.83
  Q 736.53 638.50 692.08 715.00
  Q 687.43 723.01 683.76 731.34
  C 671.86 758.35 665.04 773.74 660.29 799.75
  C 653.78 832.16 650.09 860.20 645.75 898.96
  C 634.87 996.07 591.93 1084.96 527.35 1157.89
  C 479.92 1211.46 431.59 1264.03 379.96 1313.60
  Q 266.48 1422.55 152.87 1531.37
  Q 138.63 1545.01 124.19 1558.44
  Q 80.17 1599.40 41.94 1645.82
  Q 41.63 1646.19 42.00 1646.51
  L 78.87 1678.36
  A 0.67 0.67 0.0 0 0 79.76 1678.35
  Q 127.22 1635.34 174.36 1592.00
  C 205.92 1563.00 232.21 1528.17 257.56 1493.80
  C 270.04 1476.89 284.82 1460.34 298.46 1445.71
  C 314.60 1428.39 342.55 1397.64 371.70 1368.70
  Q 458.71 1282.33 545.60 1195.85
  C 576.95 1164.66 609.66 1135.06 642.23 1105.15
  Q 647.03 1100.74 652.43 1097.15
  Q 672.83 1083.57 693.35 1070.17
  C 716.69 1054.93 740.71 1044.69 765.73 1034.08
  C 784.52 1026.13 802.78 1016.46 821.00 1007.29
  C 823.74 1005.87 826.54 1005.90 829.03 1004.33
  Q 880.01 972.39 931.57 941.22
  A 0.34 0.34 0.0 0 0 931.34 940.59
  C 912.19 943.57 892.89 946.75 873.56 948.81
  Q 830.03 953.45 786.48 957.80
  C 781.06 958.34 774.46 956.11 769.02 954.97
  Q 768.53 954.86 768.22 954.47
  C 730.51 907.21 712.72 851.81 720.13 791.37
  C 726.21 741.84 744.47 695.10 770.06 652.25
  Q 776.82 640.94 780.05 634.94
  Q 801.50 595.09 822.52 555.01
  Q 839.04 523.49 866.25 491.29
  Q 887.21 462.77 906.75 433.23
  Q 907.08 432.74 906.61 432.38
  L 888.43 418.84
  A 0.61 0.60 34.5 0 0 887.55 419.00
  L 848.04 481.50
  Z"
/>
<path fill="#984b01" d="
  M 1114.77 118.14
  C 1139.63 96.62 1161.01 69.95 1181.57 44.40
  Q 1182.52 43.22 1181.76 44.52
  Q 1160.23 81.09 1138.59 117.58
  Q 1136.42 121.24 1132.31 130.06
  Q 1121.34 153.56 1110.25 177.02
  Q 1110.01 177.53 1109.50 177.28
  Q 1090.32 167.68 1073.74 154.07
  A 1.11 1.10 -44.7 0 1 1073.75 152.36
  Q 1094.68 135.53 1114.77 118.14
  Z"
/>
<path fill="#ffffff" d="
  M 1065.43 414.59
  Q 1058.51 413.12 1051.51 412.23
  C 1026.32 409.00 1001.12 403.87 975.93 399.36
  Q 974.77 399.15 975.81 398.60
  Q 986.08 393.25 996.86 387.41
  Q 1001.49 384.89 1005.12 380.91
  Q 1006.76 379.09 1004.34 378.74
  C 990.37 376.69 979.73 372.39 964.13 366.14
  C 932.57 353.51 898.94 337.67 869.87 323.67
  Q 864.87 321.27 860.23 317.89
  Q 844.30 306.31 828.10 294.98
  C 832.04 286.45 836.34 276.21 842.57 268.99
  Q 864.39 243.71 886.08 218.34
  Q 891.74 211.72 897.07 203.98
  Q 920.58 169.83 946.30 137.31
  C 964.98 113.70 992.90 87.74 1025.70 89.03
  Q 1028.18 89.13 1030.51 90.39
  C 1047.66 99.69 1061.74 113.57 1076.34 126.33
  Q 1076.79 126.73 1076.41 127.20
  L 1064.28 142.41
  Q 1063.86 142.94 1063.67 142.29
  L 1058.95 125.61
  Q 1058.82 125.14 1058.34 125.24
  L 1055.48 125.86
  A 1.06 1.05 -1.6 0 0 1054.65 126.73
  C 1053.56 133.54 1051.86 146.74 1055.68 152.10
  C 1072.30 175.45 1098.32 198.97 1129.64 191.27
  Q 1130.15 191.14 1130.04 190.63
  L 1129.74 189.18
  Q 1129.61 188.59 1129.08 188.31
  L 1119.20 183.09
  Q 1118.72 182.84 1119.17 182.52
  L 1129.89 174.87
  Q 1130.33 174.56 1130.87 174.53
  C 1137.96 174.18 1144.48 177.46 1150.71 181.57
  Q 1162.15 189.12 1173.39 196.98
  C 1180.57 202.01 1186.94 220.08 1185.74 227.99
  C 1184.73 234.66 1184.63 237.72 1181.36 242.16
  Q 1155.55 277.20 1130.42 312.73
  Q 1125.31 319.95 1120.97 327.87
  Q 1107.72 352.02 1094.43 376.14
  Q 1091.19 382.04 1087.17 387.22
  Q 1076.41 401.08 1065.43 414.59
  Z"
/>
<path fill="#cccccc" d="
  M 828.10 294.98
  Q 844.30 306.31 860.23 317.89
  Q 864.87 321.27 869.87 323.67
  C 898.94 337.67 932.57 353.51 964.13 366.14
  C 979.73 372.39 990.37 376.69 1004.34 378.74
  Q 1006.76 379.09 1005.12 380.91
  Q 1001.49 384.89 996.86 387.41
  Q 986.08 393.25 975.81 398.60
  Q 974.77 399.15 975.93 399.36
  C 1001.12 403.87 1026.32 409.00 1051.51 412.23
  Q 1058.51 413.12 1065.43 414.59
  Q 1047.78 429.31 1030.22 443.72
  C 1024.63 448.30 1016.81 452.82 1009.56 454.58
  C 993.55 458.47 981.54 456.52 968.32 446.75
  Q 957.04 438.42 945.63 430.26
  C 943.43 428.69 940.50 427.42 938.52 425.97
  Q 913.15 407.48 889.79 386.50
  L 889.00 385.96
  Q 876.74 373.08 858.16 356.09
  C 843.30 342.50 829.84 323.56 826.50 302.97
  Q 825.88 299.13 828.10 294.98
  Z"
/>
<path fill="#804000" d="
  M 866.25 491.29
  Q 856.89 486.86 848.04 481.50
  L 887.55 419.00
  A 0.61 0.60 34.5 0 1 888.43 418.84
  L 906.61 432.38
  Q 907.08 432.74 906.75 433.23
  Q 887.21 462.77 866.25 491.29
  Z"
/>
<path fill="#984b01" d="
  M 848.04 481.50
  Q 856.89 486.86 866.25 491.29
  Q 839.04 523.49 822.52 555.01
  Q 801.50 595.09 780.05 634.94
  Q 776.82 640.94 770.06 652.25
  C 744.47 695.10 726.21 741.84 720.13 791.37
  C 712.72 851.81 730.51 907.21 768.22 954.47
  Q 768.53 954.86 769.02 954.97
  C 774.46 956.11 781.06 958.34 786.48 957.80
  Q 830.03 953.45 873.56 948.81
  C 892.89 946.75 912.19 943.57 931.34 940.59
  A 0.34 0.34 0.0 0 1 931.57 941.22
  Q 880.01 972.39 829.03 1004.33
  C 826.54 1005.90 823.74 1005.87 821.00 1007.29
  C 820.03 1006.56 819.21 1005.92 817.88 1006.01
  C 794.84 1007.52 743.16 1009.10 729.28 985.26
  Q 718.92 967.47 708.76 949.73
  A 0.35 0.35 0.0 0 0 708.12 949.81
  L 697.96 986.32
  Q 697.79 986.92 697.18 987.04
  L 689.53 988.51
  A 0.54 0.54 0.0 0 1 688.89 988.07
  Q 674.39 898.86 659.80 809.74
  C 659.56 808.30 661.65 801.24 660.29 799.75
  C 665.04 773.74 671.86 758.35 683.76 731.34
  Q 687.43 723.01 692.08 715.00
  Q 736.53 638.50 752.60 611.83
  C 770.31 582.44 791.87 553.08 817.52 519.03
  C 827.13 506.27 837.83 493.98 848.04 481.50
  Z"
/>
<path fill="#804000" d="
  M 660.29 799.75
  C 661.65 801.24 659.56 808.30 659.80 809.74
  Q 674.39 898.86 688.89 988.07
  A 0.54 0.54 0.0 0 0 689.53 988.51
  L 697.18 987.04
  Q 697.79 986.92 697.96 986.32
  L 708.12 949.81
  A 0.35 0.35 0.0 0 1 708.76 949.73
  Q 718.92 967.47 729.28 985.26
  C 743.16 1009.10 794.84 1007.52 817.88 1006.01
  C 819.21 1005.92 820.03 1006.56 821.00 1007.29
  C 802.78 1016.46 784.52 1026.13 765.73 1034.08
  C 740.71 1044.69 716.69 1054.93 693.35 1070.17
  Q 672.83 1083.57 652.43 1097.15
  Q 647.03 1100.74 642.23 1105.15
  C 609.66 1135.06 576.95 1164.66 545.60 1195.85
  Q 458.71 1282.33 371.70 1368.70
  C 342.55 1397.64 314.60 1428.39 298.46 1445.71
  C 284.82 1460.34 270.04 1476.89 257.56 1493.80
  C 232.21 1528.17 205.92 1563.00 174.36 1592.00
  Q 127.22 1635.34 79.76 1678.35
  A 0.67 0.67 0.0 0 1 78.87 1678.36
  L 42.00 1646.51
  Q 41.63 1646.19 41.94 1645.82
  Q 80.17 1599.40 124.19 1558.44
  Q 138.63 1545.01 152.87 1531.37
  Q 266.48 1422.55 379.96 1313.60
  C 431.59 1264.03 479.92 1211.46 527.35 1157.89
  C 591.93 1084.96 634.87 996.07 645.75 898.96
  C 650.09 860.20 653.78 832.16 660.29 799.75
  Z"
/>
</svg>
